<svg xmlns="http://www.w3.org/2000/svg" xmlns:xlink="http://www.w3.org/1999/xlink" width="1010.73" height="1193.111" viewBox="0 0 1010.73 1193.111">
  <defs>
    <clipPath id="clip-path">
      <rect id="Rectangle_1544" data-name="Rectangle 1544" width="1010.73" height="1193.111" fill="none"/>
    </clipPath>
  </defs>
  <g id="Group_772" data-name="Group 772" transform="translate(0 -0.005)">
    <g id="Group_771" data-name="Group 771" transform="translate(0 0.005)" clip-path="url(#clip-path)">
      <path id="Path_6794" data-name="Path 6794" d="M1014.225,1128.887c0,35.474-28.226,64.229-63.044,64.229H95.275c-34.819,0-63.045-28.755-63.045-64.229V64.233C32.23,28.761,60.456,0,95.275,0H951.181c34.818,0,63.044,28.756,63.044,64.228Z" transform="translate(-3.495 -0.005)" fill="#4a4647"/>
      <rect id="Rectangle_1538" data-name="Rectangle 1538" width="17.739" height="1055.766" transform="translate(933.791 69.114)" fill="#ededed"/>
      <rect id="Rectangle_1539" data-name="Rectangle 1539" width="17.739" height="1039.566" transform="translate(951.521 79.138)" fill="#d3d3d3"/>
      <rect id="Rectangle_1540" data-name="Rectangle 1540" width="868.039" height="1070.017" transform="translate(65.71 59.075)" fill="#fff"/>
      <path id="Path_6795" data-name="Path 6795" d="M146.966,151.472a21.019,21.019,0,1,1-21.015-21.41,21.215,21.215,0,0,1,21.015,21.41" transform="translate(-11.379 -14.108)" fill="#4a4647"/>
      <path id="Path_6796" data-name="Path 6796" d="M146.966,318.951a21.019,21.019,0,1,1-21.015-21.41,21.215,21.215,0,0,1,21.015,21.41" transform="translate(-11.379 -32.269)" fill="#4a4647"/>
      <path id="Path_6797" data-name="Path 6797" d="M146.966,486.43a21.019,21.019,0,1,1-21.015-21.408,21.216,21.216,0,0,1,21.015,21.408" transform="translate(-11.379 -50.431)" fill="#4a4647"/>
      <path id="Path_6798" data-name="Path 6798" d="M146.966,653.908A21.019,21.019,0,1,1,125.951,632.5a21.216,21.216,0,0,1,21.015,21.408" transform="translate(-11.379 -68.591)" fill="#4a4647"/>
      <path id="Path_6799" data-name="Path 6799" d="M146.966,821.389a21.019,21.019,0,1,1-21.015-21.41,21.217,21.217,0,0,1,21.015,21.41" transform="translate(-11.379 -86.753)" fill="#4a4647"/>
      <path id="Path_6800" data-name="Path 6800" d="M146.966,988.868a21.019,21.019,0,1,1-21.015-21.411,21.217,21.217,0,0,1,21.015,21.411" transform="translate(-11.379 -104.914)" fill="#4a4647"/>
      <path id="Path_6801" data-name="Path 6801" d="M146.966,1156.346a21.019,21.019,0,1,1-21.015-21.411,21.217,21.217,0,0,1,21.015,21.411" transform="translate(-11.379 -123.075)" fill="#4a4647"/>
      <line id="Line_5" data-name="Line 5" x1="467.177" transform="translate(178.831 126.761)" fill="#4a4647"/>
      <path id="Path_6803" data-name="Path 6803" d="M110.329,166.01H13.336a13.589,13.589,0,0,1,0-27.174h96.993a13.589,13.589,0,0,1,0,27.174" transform="translate(0 -15.06)" fill="#cde3c0"/>
      <path id="Path_6804" data-name="Path 6804" d="M110.329,333.182H13.336a13.589,13.589,0,0,1,0-27.173h96.993a13.589,13.589,0,0,1,0,27.173" transform="translate(0 -33.187)" fill="#cde3c0"/>
      <path id="Path_6805" data-name="Path 6805" d="M110.329,500.815H13.336a13.589,13.589,0,0,1,0-27.174h96.993a13.589,13.589,0,0,1,0,27.174" transform="translate(0 -51.365)" fill="#cde3c0"/>
      <path id="Path_6806" data-name="Path 6806" d="M110.329,668.449H13.336a13.589,13.589,0,0,1,0-27.174h96.993a13.589,13.589,0,0,1,0,27.174" transform="translate(0 -69.543)" fill="#cde3c0"/>
      <path id="Path_6807" data-name="Path 6807" d="M110.329,836.082H13.336a13.589,13.589,0,0,1,0-27.174h96.993a13.589,13.589,0,0,1,0,27.174" transform="translate(0 -87.721)" fill="#cde3c0"/>
      <path id="Path_6808" data-name="Path 6808" d="M110.329,1005.1H13.336a13.589,13.589,0,0,1,0-27.174h96.993a13.589,13.589,0,0,1,0,27.174" transform="translate(0 -106.049)" fill="#cde3c0"/>
      <path id="Path_6809" data-name="Path 6809" d="M110.329,1170.655H13.336a13.589,13.589,0,0,1,0-27.174h96.993a13.589,13.589,0,0,1,0,27.174" transform="translate(0 -124.001)" fill="#cde3c0"/>
    </g>
  </g>
</svg>
